<svg id="Livello_1" data-name="Livello 1" xmlns="http://www.w3.org/2000/svg" viewBox="0 0 111.59 158.74"><defs><style>.cls-1{fill:#fff9bf;}.cls-2{fill:#1d1d1b;}.cls-3{fill:#3e5b9a;}.cls-4{fill:#ea561e;}.cls-5{fill:#66b134;}</style></defs><title>keep calm and fte</title><rect class="cls-1" width="111.59" height="158.74"/><path class="cls-2" d="M46.45,68.17H41.82l-7.33-8.11v8.11H30.94V49.84h3.55V58L42,49.84H46.2l-8.27,9Z" transform="translate(-4.27 -3.51)"/><path class="cls-2" d="M60.15,68.17H48.06V49.87h12.1V52.8H51.54v4.38H60V60h-8.5v5h8.61Z" transform="translate(-4.27 -3.51)"/><path class="cls-2" d="M75,68.17H62.9V49.87H75V52.8H66.38v4.38h8.5V60h-8.5v5H75Z" transform="translate(-4.27 -3.51)"/><path class="cls-2" d="M90.6,56a6,6,0,0,1-.49,2.44,6.2,6.2,0,0,1-1.34,2,6.11,6.11,0,0,1-2,1.31,6.37,6.37,0,0,1-2.43.47h-3v6H77.75V49.87h6.59a6.37,6.37,0,0,1,2.43.47,6.22,6.22,0,0,1,2,1.29,6.11,6.11,0,0,1,1.34,1.95A6,6,0,0,1,90.6,56ZM87,56a3.38,3.38,0,0,0-1-2.41A3.54,3.54,0,0,0,85,52.82a3.24,3.24,0,0,0-1.33-.27H81.3v6.92h2.36A3.13,3.13,0,0,0,85,59.18a3.51,3.51,0,0,0,1.08-.77,3.62,3.62,0,0,0,.72-1.11A3.43,3.43,0,0,0,87,56Z" transform="translate(-4.27 -3.51)"/><path class="cls-2" d="M41.1,89.31A10.18,10.18,0,0,1,37.77,92a9.48,9.48,0,0,1-4.32,1,9.93,9.93,0,0,1-6.94-2.77,9.47,9.47,0,0,1-2.08-3,9.47,9.47,0,0,1,0-7.45,9.54,9.54,0,0,1,5.19-5.05,10,10,0,0,1,3.83-.73,9.47,9.47,0,0,1,4.32,1A10,10,0,0,1,41,77.49L38.58,80a6.44,6.44,0,0,0-2.19-2A6.18,6.18,0,0,0,31,77.8a6.45,6.45,0,0,0-2,1.33,6.32,6.32,0,0,0-1.34,1.95,5.79,5.79,0,0,0-.49,2.37,5.73,5.73,0,0,0,.49,2.35,6.29,6.29,0,0,0,1.34,1.95,6.46,6.46,0,0,0,2,1.33,6,6,0,0,0,2.42.49,5.81,5.81,0,0,0,3-.77,6.83,6.83,0,0,0,2.18-2Z" transform="translate(-4.27 -3.51)"/><path class="cls-2" d="M61.45,92.61h-3.9l-1.7-3.67H47l-1.72,3.67H41.35L50,74.28h2.77Zm-7-6.62-3-6.6L48.32,86Z" transform="translate(-4.27 -3.51)"/><path class="cls-2" d="M75.67,92.61H63.28V74.3H66.9V89.17h8.77Z" transform="translate(-4.27 -3.51)"/><path class="cls-2" d="M96,92.61H92.53V80.37l-5.77,9.74-5.54-9.83V92.61H77.73V74.28h4l5.09,9.09,5.31-9.09H96Z" transform="translate(-4.27 -3.51)"/><path class="cls-2" d="M43.64,108.39H41.91l-.75-1.63h-4l-.76,1.63H34.71l3.85-8.15h1.23Zm-3.11-2.94-1.35-2.93-1.37,2.93Z" transform="translate(-4.27 -3.51)"/><path class="cls-2" d="M51.23,108.39H49.68L46,102.68v5.71H44.46v-8.15h1.77l3.45,5.32v-5.32h1.55Z" transform="translate(-4.27 -3.51)"/><path class="cls-2" d="M60,104.32a4.35,4.35,0,0,1-.29,1.58,4,4,0,0,1-.79,1.29,3.69,3.69,0,0,1-2.76,1.2h-3.4v-8.15h3.4a3.64,3.64,0,0,1,1.54.33,3.81,3.81,0,0,1,1.22.88,4,4,0,0,1,.79,1.29A4.37,4.37,0,0,1,60,104.32Zm-1.6,0a3,3,0,0,0-.17-1.08,2.65,2.65,0,0,0-.53-.89,2.47,2.47,0,0,0-.85-.6,2.83,2.83,0,0,0-1.13-.22H54.33V107h1.38a2.83,2.83,0,0,0,1.11-.21,2.42,2.42,0,0,0,.84-.58,2.62,2.62,0,0,0,.53-.88A3.31,3.31,0,0,0,58.4,104.28Z" transform="translate(-4.27 -3.51)"/><path class="cls-2" d="M71.92,106.89a4.44,4.44,0,0,1-.75.74,4.51,4.51,0,0,1-.85.51,4.25,4.25,0,0,1-.91.3,4.51,4.51,0,0,1-.92.1,4.44,4.44,0,0,1-1.7-.33,4.34,4.34,0,0,1-1.38-.9,4.27,4.27,0,0,1-.94-1.34,4.16,4.16,0,0,1,0-3.31,4.18,4.18,0,0,1,.94-1.34,4.46,4.46,0,0,1,1.39-.9,4.37,4.37,0,0,1,1.7-.33,4.23,4.23,0,0,1,1.91.43,4.51,4.51,0,0,1,1.46,1.14l-1.07,1.09a2.75,2.75,0,0,0-1-.89,2.93,2.93,0,0,0-1.27-.27,2.78,2.78,0,0,0-1.09.21,2.84,2.84,0,0,0-.89.59,2.76,2.76,0,0,0-.6.87,2.58,2.58,0,0,0-.22,1.05,2.61,2.61,0,0,0,.22,1.06,2.81,2.81,0,0,0,1.49,1.46,2.77,2.77,0,0,0,1.09.21,2.67,2.67,0,0,0,1-.2,3.21,3.21,0,0,0,.87-.54v-.78H68.73v-1.34h3.19Z" transform="translate(-4.27 -3.51)"/><path class="cls-2" d="M78.51,108.39H73.14v-8.14h5.38v1.3H74.69v1.94h3.78v1.27H74.69V107h3.83Z" transform="translate(-4.27 -3.51)"/><path class="cls-2" d="M85.33,101.66H83.08v6.73h-1.6v-6.73H79.23v-1.41h6.1Z" transform="translate(-4.27 -3.51)"/><path class="cls-3" d="M29.74,114a2.67,2.67,0,0,0-.52-.15,3.17,3.17,0,0,0-.49,0,1.09,1.09,0,0,0-.83.27,1.44,1.44,0,0,0-.25,1v.64h1.27v1.76H27.65v6.31h-2v-6.31h-1v-1.76h1v-.62a4,4,0,0,1,.57-2.32,2.3,2.3,0,0,1,2-.8,5.74,5.74,0,0,1,1.53.2Z" transform="translate(-4.27 -3.51)"/><path class="cls-3" d="M36.92,123.79h-2v-.43a3.36,3.36,0,0,1-1.13.5,5.36,5.36,0,0,1-1.22.14,3.08,3.08,0,0,1-1.06-.17,2.4,2.4,0,0,1-.83-.5,2.26,2.26,0,0,1-.54-.78,2.53,2.53,0,0,1-.19-1,2.32,2.32,0,0,1,.3-1.2,2.6,2.6,0,0,1,.82-.85,3.77,3.77,0,0,1,1.21-.51,6.3,6.3,0,0,1,1.49-.17h1.16a1.46,1.46,0,0,0-.46-1.13,1.91,1.91,0,0,0-1.33-.42,2.67,2.67,0,0,0-.87.15,2.62,2.62,0,0,0-.9.56l-1.19-1.2a4.55,4.55,0,0,1,1.49-1,4.67,4.67,0,0,1,1.74-.34,4,4,0,0,1,1.5.27,3.07,3.07,0,0,1,1.8,1.88,5.5,5.5,0,0,1,.22,1.68Zm-2-2v-1.5H34a5.33,5.33,0,0,0-.79.06,2.21,2.21,0,0,0-.64.19,1.18,1.18,0,0,0-.43.34.8.8,0,0,0-.16.5.84.84,0,0,0,.33.69,1.3,1.3,0,0,0,.85.27,2.91,2.91,0,0,0,.89-.14A4.28,4.28,0,0,0,34.91,121.77Z" transform="translate(-4.27 -3.51)"/><path class="cls-3" d="M45.77,122.57a4,4,0,0,1-1.48,1.06,4.65,4.65,0,0,1-1.82.36,4.33,4.33,0,0,1-1.67-.32,4.11,4.11,0,0,1-2.27-2.24,4.28,4.28,0,0,1-.33-1.69,4.19,4.19,0,0,1,.33-1.67,4.3,4.3,0,0,1,.9-1.35,4.15,4.15,0,0,1,1.35-.9,4.29,4.29,0,0,1,1.68-.33,4.64,4.64,0,0,1,1.76.34,3.88,3.88,0,0,1,1.45,1l-1.36,1.39a2.66,2.66,0,0,0-.75-.67,2,2,0,0,0-1.07-.27,2,2,0,0,0-.87.2,2.47,2.47,0,0,0-.73.52,2.44,2.44,0,0,0-.5.78,2.55,2.55,0,0,0,.49,2.68,2.35,2.35,0,0,0,.73.53,2.06,2.06,0,0,0,.88.2,2.12,2.12,0,0,0,1.09-.29,2.33,2.33,0,0,0,.78-.74Z" transform="translate(-4.27 -3.51)"/><path class="cls-3" d="M55.12,119.73a3.88,3.88,0,0,1,0,.41c0,.14,0,.29,0,.43H48.58a2.8,2.8,0,0,0,.31.67,2.24,2.24,0,0,0,.5.55,2.38,2.38,0,0,0,.67.36,2.43,2.43,0,0,0,.82.13,3.32,3.32,0,0,0,1.09-.19,2.68,2.68,0,0,0,.91-.51l1.27,1.27a5.66,5.66,0,0,1-1.65.89,5.52,5.52,0,0,1-1.7.26,4.35,4.35,0,0,1-3.07-1.25,4.24,4.24,0,0,1-.92-1.35,4.25,4.25,0,0,1,0-3.32,4.18,4.18,0,0,1,.92-1.35,4.43,4.43,0,0,1,1.37-.91,4.21,4.21,0,0,1,1.68-.34,4.35,4.35,0,0,1,1.64.31,4.47,4.47,0,0,1,1.39.88,4.1,4.1,0,0,1,1.3,3.05ZM53,118.95a2.43,2.43,0,0,0-.85-1.24,2.2,2.2,0,0,0-1.38-.47,2.15,2.15,0,0,0-1.36.47,2.44,2.44,0,0,0-.84,1.24Z" transform="translate(-4.27 -3.51)"/><path class="cls-3" d="M64.17,119.74a4.59,4.59,0,0,1-.29,1.62,4.21,4.21,0,0,1-.81,1.35,3.89,3.89,0,0,1-1.24.92,3.58,3.58,0,0,1-1.57.34,3.25,3.25,0,0,1-1-.15,2.7,2.7,0,0,1-.87-.47v.42h-2V112.17h2v3.92a2.79,2.79,0,0,1,.83-.45,3.09,3.09,0,0,1,1-.17,3.37,3.37,0,0,1,1.44.33,4.14,4.14,0,0,1,1.25.9,4.47,4.47,0,0,1,.88,1.35A4.28,4.28,0,0,1,64.17,119.74Zm-2,0a3,3,0,0,0-.17-1,2.35,2.35,0,0,0-.47-.79,2.06,2.06,0,0,0-.72-.5,2.35,2.35,0,0,0-.92-.17,2.54,2.54,0,0,0-.75.13,2.32,2.32,0,0,0-.7.34v3.89a2.15,2.15,0,0,0,1.49.6,2.2,2.2,0,0,0,.89-.18,2,2,0,0,0,.71-.51,2.41,2.41,0,0,0,.46-.78A2.86,2.86,0,0,0,62.12,119.74Z" transform="translate(-4.27 -3.51)"/><path class="cls-3" d="M73.78,119.74a4.21,4.21,0,0,1-.34,1.69,4.12,4.12,0,0,1-.92,1.34,4.4,4.4,0,0,1-1.38.9,4.34,4.34,0,0,1-1.69.33,4.29,4.29,0,0,1-1.68-.33,4.33,4.33,0,0,1-1.37-.9,4.19,4.19,0,0,1-1.26-3,4.05,4.05,0,0,1,.34-1.66,4.39,4.39,0,0,1,.93-1.36,4.31,4.31,0,0,1,3-1.24,4.34,4.34,0,0,1,1.69.33,4.4,4.4,0,0,1,1.38.9,4.1,4.1,0,0,1,.92,1.35A4.22,4.22,0,0,1,73.78,119.74Zm-2,0a2.54,2.54,0,0,0-.18-1,2.51,2.51,0,0,0-.5-.78,2.27,2.27,0,0,0-.73-.53,2.21,2.21,0,0,0-1.79,0,2.27,2.27,0,0,0-.73.53,2.51,2.51,0,0,0-.5.78,2.66,2.66,0,0,0,0,1.93,2.51,2.51,0,0,0,.5.78,2.27,2.27,0,0,0,.73.52,2.2,2.2,0,0,0,1.79,0,2.27,2.27,0,0,0,.73-.52,2.51,2.51,0,0,0,.5-.78A2.54,2.54,0,0,0,71.77,119.74Z" transform="translate(-4.27 -3.51)"/><path class="cls-3" d="M83.4,119.74a4.21,4.21,0,0,1-.34,1.69,4.12,4.12,0,0,1-.92,1.34,4.4,4.4,0,0,1-1.38.9,4.34,4.34,0,0,1-1.69.33,4.29,4.29,0,0,1-1.68-.33,4.33,4.33,0,0,1-1.37-.9,4.19,4.19,0,0,1-1.26-3,4.05,4.05,0,0,1,.34-1.66,4.39,4.39,0,0,1,.93-1.36,4.31,4.31,0,0,1,3-1.24,4.34,4.34,0,0,1,1.69.33,4.4,4.4,0,0,1,1.38.9,4.1,4.1,0,0,1,.92,1.35A4.22,4.22,0,0,1,83.4,119.74Zm-2,0a2.54,2.54,0,0,0-.18-1,2.51,2.51,0,0,0-.5-.78,2.27,2.27,0,0,0-.73-.53,2.21,2.21,0,0,0-1.79,0,2.27,2.27,0,0,0-.73.53,2.51,2.51,0,0,0-.5.78,2.66,2.66,0,0,0,0,1.93,2.51,2.51,0,0,0,.5.78,2.27,2.27,0,0,0,.73.52A2.2,2.2,0,0,0,80,122a2.27,2.27,0,0,0,.73-.52,2.51,2.51,0,0,0,.5-.78A2.54,2.54,0,0,0,81.39,119.74Z" transform="translate(-4.27 -3.51)"/><path class="cls-3" d="M92.36,123.79H90l-3.25-3.63v3.63H84.66V112.18h2.06v6.94l2.83-3.43H91.9l-3.32,3.93Z" transform="translate(-4.27 -3.51)"/><path class="cls-3" d="M95.2,123.79H93.06v-2.14H95.2Z" transform="translate(-4.27 -3.51)"/><path class="cls-4" d="M34.51,139a2.34,2.34,0,0,1-.71.29,3.49,3.49,0,0,1-.81.1,3.61,3.61,0,0,1-1.2-.17,1.73,1.73,0,0,1-.78-.54,2.28,2.28,0,0,1-.43-.92,5.74,5.74,0,0,1-.13-1.32V132.9H29.38V132a3.77,3.77,0,0,0,1.59-1.2,4.7,4.7,0,0,0,.83-2.07h.66v2.37h2v1.82h-2v3.68a1.39,1.39,0,0,0,.08.5.78.78,0,0,0,.2.31.69.69,0,0,0,.29.15,1.37,1.37,0,0,0,.34,0,2.46,2.46,0,0,0,.57-.08,1.44,1.44,0,0,0,.57-.28Z" transform="translate(-4.27 -3.51)"/><path class="cls-4" d="M41.51,131.94l-1.08,1.71a3.79,3.79,0,0,0-.65-.57,1.27,1.27,0,0,0-.72-.25,1.17,1.17,0,0,0-.43.09,1.24,1.24,0,0,0-.43.3,1.7,1.7,0,0,0-.34.55,2.24,2.24,0,0,0-.14.85v4.56h-2V131.1h2V132a2.9,2.9,0,0,1,.8-.8,1.8,1.8,0,0,1,1-.28,2.11,2.11,0,0,1,1,.29A4.05,4.05,0,0,1,41.51,131.94Z" transform="translate(-4.27 -3.51)"/><path class="cls-4" d="M48.79,139.19h-2v-.43a3.36,3.36,0,0,1-1.13.5,5.36,5.36,0,0,1-1.22.14,3.08,3.08,0,0,1-1.06-.17,2.4,2.4,0,0,1-.83-.5,2.26,2.26,0,0,1-.54-.78,2.53,2.53,0,0,1-.19-1,2.32,2.32,0,0,1,.3-1.2,2.6,2.6,0,0,1,.82-.85,3.77,3.77,0,0,1,1.21-.51,6.3,6.3,0,0,1,1.49-.17h1.16a1.46,1.46,0,0,0-.46-1.13,1.91,1.91,0,0,0-1.33-.42,2.67,2.67,0,0,0-.87.15,2.62,2.62,0,0,0-.9.56L42,132.17a4.55,4.55,0,0,1,1.49-1,4.67,4.67,0,0,1,1.74-.34,4,4,0,0,1,1.5.27,3.07,3.07,0,0,1,1.8,1.88,5.5,5.5,0,0,1,.22,1.68Zm-2-2v-1.5h-.92a5.33,5.33,0,0,0-.79.06,2.21,2.21,0,0,0-.64.19,1.18,1.18,0,0,0-.43.34.8.8,0,0,0-.16.5.84.84,0,0,0,.33.69,1.3,1.3,0,0,0,.85.27,2.91,2.91,0,0,0,.89-.14A4.28,4.28,0,0,0,46.78,137.17Z" transform="translate(-4.27 -3.51)"/><path class="cls-4" d="M57.64,138A4,4,0,0,1,56.16,139a4.65,4.65,0,0,1-1.82.36,4.33,4.33,0,0,1-1.67-.32,4.11,4.11,0,0,1-2.27-2.24,4.28,4.28,0,0,1-.33-1.69,4.19,4.19,0,0,1,.33-1.67,4.3,4.3,0,0,1,.9-1.35,4.15,4.15,0,0,1,1.35-.9,4.29,4.29,0,0,1,1.68-.33,4.64,4.64,0,0,1,1.76.34,3.88,3.88,0,0,1,1.45,1l-1.36,1.39a2.66,2.66,0,0,0-.75-.67,2,2,0,0,0-1.07-.27,2,2,0,0,0-.87.2,2.47,2.47,0,0,0-.73.52,2.44,2.44,0,0,0-.5.78,2.55,2.55,0,0,0,.49,2.68,2.35,2.35,0,0,0,.73.53,2.06,2.06,0,0,0,.88.2,2.12,2.12,0,0,0,1.09-.29,2.33,2.33,0,0,0,.78-.74Z" transform="translate(-4.27 -3.51)"/><path class="cls-4" d="M66.34,139.19H63.94l-3.25-3.63v3.63H58.64V127.58h2.06v6.94l2.83-3.43h2.35L62.56,135Z" transform="translate(-4.27 -3.51)"/><path class="cls-4" d="M69.14,129.68H67v-2.1h2.1Zm0,9.51h-2v-8.11h2Z" transform="translate(-4.27 -3.51)"/><path class="cls-4" d="M78.32,139.19h-2v-4.83a2,2,0,0,0-.13-.76,1.58,1.58,0,0,0-.36-.55,1.45,1.45,0,0,0-.51-.32,1.73,1.73,0,0,0-.6-.11,2.72,2.72,0,0,0-.91.16,2.28,2.28,0,0,0-.81.51v5.89H71V131.1h2v.6a2.15,2.15,0,0,1,.45-.34,3.51,3.51,0,0,1,.55-.26,3.59,3.59,0,0,1,.59-.16,3.19,3.19,0,0,1,.58-.06,3.61,3.61,0,0,1,1.18.2,2.86,2.86,0,0,1,1,.6,2.92,2.92,0,0,1,.71,1,4,4,0,0,1,.27,1.53Z" transform="translate(-4.27 -3.51)"/><path class="cls-4" d="M87.29,132.69h-.85a2.91,2.91,0,0,1,.32,1.34,2.85,2.85,0,0,1-.2,1.06A3.1,3.1,0,0,1,86,136a3.43,3.43,0,0,1-.92.71,3.58,3.58,0,0,1-1.21.39,1.83,1.83,0,0,0-.69.22c-.15.1-.23.2-.23.29s.08.19.23.27a1.84,1.84,0,0,0,.69.17,4.73,4.73,0,0,1,2.43.78,2,2,0,0,1,.86,1.71,2,2,0,0,1-.27,1,2.43,2.43,0,0,1-.76.8,3.83,3.83,0,0,1-1.19.52,6.21,6.21,0,0,1-1.56.18,6.35,6.35,0,0,1-1.58-.18,4,4,0,0,1-1.21-.51,2.35,2.35,0,0,1-.77-.79,2,2,0,0,1-.27-1,2.11,2.11,0,0,1,.48-1.41,3,3,0,0,1,1.56-.85,1,1,0,0,1-.48-.34.7.7,0,0,1-.13-.44.72.72,0,0,1,.19-.43,1.12,1.12,0,0,1,.5-.31,3.36,3.36,0,0,1-.7-.43,3.55,3.55,0,0,1-.6-.62,2.85,2.85,0,0,1-.42-.78,2.73,2.73,0,0,1-.16-.92,2.77,2.77,0,0,1,.28-1.23,3.23,3.23,0,0,1,.76-1,3.56,3.56,0,0,1,1.11-.67,3.64,3.64,0,0,1,1.33-.25,3.74,3.74,0,0,1,1.27.21h2.77Zm-2.17,7.88a.75.75,0,0,0-.49-.71,3.12,3.12,0,0,0-1.28-.22,3,3,0,0,0-1.32.24.75.75,0,0,0,0,1.41,3.69,3.69,0,0,0,2.59,0A.76.76,0,0,0,85.12,140.57ZM84.75,134a1.4,1.4,0,0,0-.12-.57,1.58,1.58,0,0,0-.32-.47,1.51,1.51,0,0,0-.47-.32,1.41,1.41,0,0,0-.58-.12,1.37,1.37,0,0,0-.57.12,1.54,1.54,0,0,0-.46.32,1.58,1.58,0,0,0-.32.47,1.4,1.4,0,0,0-.12.57,1.45,1.45,0,0,0,.12.58,1.52,1.52,0,0,0,.78.8,1.35,1.35,0,0,0,.57.12,1.4,1.4,0,0,0,.58-.12,1.51,1.51,0,0,0,.47-.32,1.55,1.55,0,0,0,.32-.48A1.45,1.45,0,0,0,84.75,134Z" transform="translate(-4.27 -3.51)"/><path class="cls-3" d="M90.42,139.19H88.27V137h2.14Z" transform="translate(-4.27 -3.51)"/><path class="cls-5" d="M38.15,150.53a3.88,3.88,0,0,1,0,.41c0,.14,0,.29,0,.43H31.61a2.8,2.8,0,0,0,.31.67,2.24,2.24,0,0,0,.5.55,2.38,2.38,0,0,0,.67.36,2.43,2.43,0,0,0,.82.13,3.32,3.32,0,0,0,1.09-.19,2.68,2.68,0,0,0,.91-.51l1.27,1.27a5.66,5.66,0,0,1-1.65.89,5.52,5.52,0,0,1-1.7.26,4.35,4.35,0,0,1-3.07-1.25,4.24,4.24,0,0,1-.92-1.35,4.25,4.25,0,0,1,0-3.32,4.18,4.18,0,0,1,.92-1.35,4.43,4.43,0,0,1,1.37-.91,4.21,4.21,0,0,1,1.68-.34,4.35,4.35,0,0,1,1.64.31,4.47,4.47,0,0,1,1.39.88,4.1,4.1,0,0,1,1.3,3.05ZM36,149.75a2.43,2.43,0,0,0-.85-1.24,2.2,2.2,0,0,0-1.38-.47,2.15,2.15,0,0,0-1.36.47,2.44,2.44,0,0,0-.84,1.24Z" transform="translate(-4.27 -3.51)"/><path class="cls-5" d="M46.48,154.6H44.17L42.49,152l-1.69,2.59H38.48l2.88-4.24-2.65-3.88H41l1.48,2.27L44,146.48h2.3l-2.66,3.88Z" transform="translate(-4.27 -3.51)"/><path class="cls-5" d="M55.17,150.56a4.59,4.59,0,0,1-.29,1.62,4.23,4.23,0,0,1-.81,1.35,3.91,3.91,0,0,1-1.24.92,3.59,3.59,0,0,1-1.57.34,3.28,3.28,0,0,1-1-.15,2.72,2.72,0,0,1-.87-.47v3.92h-2V146.48h2v.42a2.75,2.75,0,0,1,.83-.45,3.06,3.06,0,0,1,1-.17,3.35,3.35,0,0,1,1.44.33,4.14,4.14,0,0,1,1.25.9,4.46,4.46,0,0,1,.88,1.35A4.27,4.27,0,0,1,55.17,150.56Zm-2.06,0a3,3,0,0,0-.17-1,2.33,2.33,0,0,0-.47-.79,2,2,0,0,0-.72-.5,2.34,2.34,0,0,0-.92-.18,2.45,2.45,0,0,0-.74.13,2.16,2.16,0,0,0-.7.36v3.88a2.14,2.14,0,0,0,1.47.6,2.18,2.18,0,0,0,.89-.18,2,2,0,0,0,.71-.51,2.42,2.42,0,0,0,.46-.78A2.82,2.82,0,0,0,53.11,150.57Z" transform="translate(-4.27 -3.51)"/><path class="cls-5" d="M64.79,150.54a4.21,4.21,0,0,1-.34,1.69,4.12,4.12,0,0,1-.92,1.34,4.4,4.4,0,0,1-1.38.9,4.34,4.34,0,0,1-1.69.33,4.29,4.29,0,0,1-1.68-.33,4.33,4.33,0,0,1-1.37-.9,4.19,4.19,0,0,1-1.26-3,4.05,4.05,0,0,1,.34-1.66,4.39,4.39,0,0,1,.93-1.36,4.31,4.31,0,0,1,3-1.24,4.34,4.34,0,0,1,1.69.33,4.4,4.4,0,0,1,1.38.9,4.1,4.1,0,0,1,.92,1.35A4.22,4.22,0,0,1,64.79,150.54Zm-2,0a2.54,2.54,0,0,0-.18-1,2.51,2.51,0,0,0-.5-.78,2.27,2.27,0,0,0-.73-.53,2.21,2.21,0,0,0-1.79,0,2.27,2.27,0,0,0-.73.53,2.51,2.51,0,0,0-.5.78,2.66,2.66,0,0,0,0,1.93,2.51,2.51,0,0,0,.5.78,2.27,2.27,0,0,0,.73.52,2.2,2.2,0,0,0,1.79,0,2.27,2.27,0,0,0,.73-.52,2.51,2.51,0,0,0,.5-.78A2.54,2.54,0,0,0,62.77,150.54Z" transform="translate(-4.27 -3.51)"/><path class="cls-5" d="M72,152.32a2,2,0,0,1-.28,1.07,2.54,2.54,0,0,1-.73.78,3.35,3.35,0,0,1-1,.48,4,4,0,0,1-1.11.16,4.18,4.18,0,0,1-1.71-.34,3.54,3.54,0,0,1-1.37-1.1L67,152.14a2.72,2.72,0,0,0,.84.72,2.12,2.12,0,0,0,1,.26,1.62,1.62,0,0,0,.79-.17.57.57,0,0,0,.31-.53.71.71,0,0,0-.45-.61,6.54,6.54,0,0,0-1.26-.48,6.06,6.06,0,0,1-.92-.36,3.4,3.4,0,0,1-.8-.53,2.54,2.54,0,0,1-.56-.72,2,2,0,0,1-.21-.94,2.06,2.06,0,0,1,.27-1.06,2.5,2.5,0,0,1,.71-.78,3.38,3.38,0,0,1,1-.48,3.93,3.93,0,0,1,1.14-.17,3.78,3.78,0,0,1,3,1.4l-1.2,1.22a2.76,2.76,0,0,0-.8-.69,2,2,0,0,0-1-.25,1.67,1.67,0,0,0-.39,0,1.71,1.71,0,0,0-.38.14.84.84,0,0,0-.29.24.53.53,0,0,0-.11.33c0,.21.14.4.43.56a6.34,6.34,0,0,0,1.22.48,5.66,5.66,0,0,1,1,.39,3.85,3.85,0,0,1,.81.55,2.47,2.47,0,0,1,.55.71A2,2,0,0,1,72,152.32Z" transform="translate(-4.27 -3.51)"/><path class="cls-5" d="M81.59,150.53a3.88,3.88,0,0,1,0,.41c0,.14,0,.29,0,.43H75.05a2.8,2.8,0,0,0,.31.67,2.24,2.24,0,0,0,.5.55,2.38,2.38,0,0,0,.67.36,2.43,2.43,0,0,0,.82.13,3.32,3.32,0,0,0,1.09-.19,2.68,2.68,0,0,0,.91-.51l1.27,1.27a5.66,5.66,0,0,1-1.65.89,5.52,5.52,0,0,1-1.7.26,4.35,4.35,0,0,1-3.07-1.25,4.24,4.24,0,0,1-.92-1.35,4.25,4.25,0,0,1,0-3.32,4.18,4.18,0,0,1,.92-1.35,4.43,4.43,0,0,1,1.37-.91,4.21,4.21,0,0,1,1.68-.34,4.35,4.35,0,0,1,1.64.31,4.47,4.47,0,0,1,1.39.88,4.1,4.1,0,0,1,1.3,3.05Zm-2.11-.78a2.43,2.43,0,0,0-.85-1.24,2.2,2.2,0,0,0-1.38-.47,2.15,2.15,0,0,0-1.36.47,2.44,2.44,0,0,0-.84,1.24Z" transform="translate(-4.27 -3.51)"/><path class="cls-5" d="M90.35,154.59H88.29v-.42a2.55,2.55,0,0,1-.85.47,3.19,3.19,0,0,1-1,.15,3.57,3.57,0,0,1-1.57-.34,3.88,3.88,0,0,1-1.23-.92,4.21,4.21,0,0,1-.81-1.35,4.61,4.61,0,0,1-.29-1.62,4.3,4.3,0,0,1,.33-1.69,4.49,4.49,0,0,1,.88-1.35,4.14,4.14,0,0,1,1.25-.9,3.36,3.36,0,0,1,1.44-.33,3.64,3.64,0,0,1,1,.14,2.68,2.68,0,0,1,.84.39V143h2Zm-2-2.17v-3.89a2.54,2.54,0,0,0-.32-.19,2.68,2.68,0,0,0-.38-.15l-.39-.1a2,2,0,0,0-.35,0,2.35,2.35,0,0,0-.92.17,2.12,2.12,0,0,0-.72.5,2.29,2.29,0,0,0-.48.79,3,3,0,0,0-.17,1,2.84,2.84,0,0,0,.17,1,2.42,2.42,0,0,0,.46.78,2.06,2.06,0,0,0,.71.51,2.21,2.21,0,0,0,2.4-.42Z" transform="translate(-4.27 -3.51)"/><g id="layer1"><g id="g4477"><path class="cls-5" d="M70.32,40.43h0L69,40.34c-2.54-.17-5.17-.34-6.72-2.12-1-1.18-1.45-2.93-1.28-5.34l1.56-12.31c.44-2.38,1.28-4,2.58-4.86,1.95-1.33,4.54-.85,7-.37l1.24.22h0L72.92,20l-2.62-.33a2.07,2.07,0,0,0-2.66,2L66.2,33a2.07,2.07,0,0,0,2.07,2.63l2.62.33Z" transform="translate(-4.27 -3.51)"/><path class="cls-3" d="M57.81,41.55,52.7,40.9v0l1.59-12.49,1.06-8.25a2.07,2.07,0,0,0-2.07-2.63l-2.62-.33.56-4.44h0l1.25.09c2.54.17,5.17.34,6.72,2.12,1,1.18,1.45,2.93,1.28,5.34L59.4,29Z" transform="translate(-4.27 -3.51)"/><g id="path4426"><path class="cls-4" d="M73,30.65h0l-27-3.43v-5H46l28.29,3.59Z" transform="translate(-4.27 -3.51)"/></g></g></g></svg>